<?xml version="1.0" encoding="UTF-8" ?>
<!DOCTYPE svg PUBLIC "-//W3C//DTD SVG 1.1//EN" "http://www.w3.org/Graphics/SVG/1.1/DTD/svg11.dtd">
<svg width="400pt" height="400pt" viewBox="0 0 400 400" version="1.1" xmlns="http://www.w3.org/2000/svg">
<g id="#141518ff">
</g>
<g id="#b88d3eff">
<path fill="#b88d3e" opacity="1.00" d=" M 189.38 22.51 C 215.37 21.02 241.70 25.17 265.87 34.88 C 312.23 53.26 349.95 92.05 366.97 138.94 C 376.59 165.22 379.90 193.80 376.47 221.57 C 372.73 252.87 360.38 283.07 341.13 308.03 C 308.68 350.89 255.84 377.84 201.96 377.70 C 153.94 378.85 106.09 358.65 72.79 324.16 C 49.35 300.34 32.89 269.71 26.01 237.00 C 22.25 219.95 21.55 202.36 22.75 184.98 C 25.44 153.04 37.00 121.89 55.88 95.97 C 78.75 64.14 112.47 40.27 150.11 29.34 C 162.90 25.62 176.09 23.34 189.38 22.51 M 184.38 34.68 C 155.25 37.44 126.87 48.03 103.16 65.21 C 86.95 76.77 72.95 91.36 61.87 107.90 C 39.58 141.04 29.77 182.45 35.34 222.03 C 41.39 269.48 69.39 313.42 109.57 339.29 C 133.46 354.88 161.42 364.15 189.90 365.83 C 229.85 368.48 270.55 355.68 302.01 330.94 C 321.03 316.18 336.73 297.17 347.70 275.75 C 359.66 252.73 365.77 226.85 366.17 200.96 C 366.07 174.96 360.16 148.92 348.42 125.67 C 338.44 106.09 324.79 88.26 307.97 74.06 C 274.39 44.90 228.63 30.26 184.38 34.68 Z" />
<path fill="#b88d3e" opacity="1.00" d=" M 197.42 84.61 C 201.36 82.87 205.02 85.72 207.53 88.49 C 229.46 110.90 251.78 132.91 273.89 155.14 C 277.06 158.18 276.56 163.60 273.47 166.51 C 252.04 188.07 230.47 209.51 209.00 231.04 C 207.11 232.85 205.39 234.94 203.04 236.18 C 199.93 237.62 196.16 236.56 193.89 234.10 C 172.60 212.74 151.16 191.52 129.99 170.03 C 127.28 167.16 123.36 164.43 123.50 160.02 C 123.77 156.29 126.94 153.90 129.36 151.43 C 149.89 130.92 170.41 110.40 190.92 89.87 C 192.92 87.95 194.70 85.55 197.42 84.61 M 144.01 160.68 C 162.13 178.67 180.15 196.76 198.19 214.83 C 198.84 215.77 200.33 216.41 201.15 215.26 C 219.38 197.04 237.57 178.77 255.85 160.60 C 237.35 141.77 218.52 123.26 199.92 104.52 C 181.31 123.25 162.36 141.70 144.01 160.68 Z" />
<path fill="#b88d3e" opacity="1.00" d=" M 117.78 192.70 C 121.18 191.67 124.69 193.50 127.12 195.78 C 151.40 219.90 175.42 244.30 199.82 268.30 C 223.69 244.33 247.66 220.47 271.54 196.52 C 273.86 194.31 276.62 191.90 280.07 192.31 C 283.62 191.87 286.99 194.61 287.66 198.05 C 288.47 201.49 286.98 205.09 284.48 207.47 C 263.00 228.89 241.57 250.36 220.11 271.81 C 240.08 271.86 260.04 271.81 280.00 271.84 C 284.22 271.62 288.62 273.72 290.33 277.74 C 292.38 283.09 287.42 288.77 282.00 288.60 C 227.32 288.58 172.64 288.62 117.96 288.59 C 113.46 288.60 108.71 284.68 109.29 279.91 C 109.09 274.88 114.41 271.72 118.96 271.85 C 139.04 271.77 159.12 271.92 179.19 271.78 C 159.77 251.88 139.90 232.41 120.30 212.68 C 117.47 209.65 113.78 207.08 112.41 202.99 C 110.62 198.86 113.49 193.72 117.78 192.70 Z" />
</g>
</svg>
